# xmcd CD database file generated by OrangeCD 5.2
#
# Track frame offsets:
#	150
#	11538
#	23050
#	35604
#	48879
#	59629
#	78331
#	89304
#	102128
#	114649
#	125665
#	137285
#	147831
#	158432
#	167873
#	180905
#	193342
#	203841
#	216395
#	228794
#	241385
#	255199
#	265806
#	276685
#	291708
#	305802
#	323234
#	334131
#
# Disc length: 4617 seconds
#
# Revision: 0
# Processed by: cddbd v1.5.2PL0 Copyright (c) Steve Scherf et al.
# Submitted via: OrangeCD 5.2
#
DISCID=9a12071c
DTITLE=Various Artist - Lost In The 50's
DYEAR=2006
DGENRE=Dance R&B
TTITLE0=Bo Diddley - Bo Diddley
TTITLE1=The Dominoes - Sixty Minute Man
TTITLE2=Jackie Wilson - Lonely Teardrops
TTITLE3=James Brown - It Hurts To Tell
TTITLE4=Clarence "Frogman" Henry - (I Don't Know Why) But I Do
TTITLE5=The Dells - Oh What A Night
TTITLE6=Shirley and Lee - Let The Good Times Roll
TTITLE7=Huey "Piano" Smith - High Blood Pressure
TTITLE8=James Brown - Please Please Please
TTITLE9=Sarah Vaughan - Brokenhearted Melody
TTITLE10=Huey "Panio" Smith and The Clowns - Don't You Just Know It
TTITLE11=Little Anthony and The Imperials - Tears On My Pillow
TTITLE12=The Teenagers - Why Do Fools Fall In Love
TTITLE13=Elvis Presley - Don't Be Cruel
TTITLE14=Etta and Harvey - If I Cant't Have You
TTITLE15=The Del-Vikings - Come Go With Me
TTITLE16=The Crickets - That'll Be The Day
TTITLE17=Sam Cooke - You Send Me
TTITLE18=Dion - Runaround Sue
TTITLE19=Frankie Ford - Sea Cruise
TTITLE20=Etta James - At Last
TTITLE21=The Tune Weavers - Happy Happy Birthday Baby
TTITLE22=Chuck Berry - Almost Grown
TTITLE23=Sam Cooke - Shake Rattle and Roll
TTITLE24=Donnie Elbert - What Can I Do
TTITLE25=Roy Orbison - Crying   With K.D. Lang
TTITLE26=The Everly Brothers - Bye Bye Love
TTITLE27=The Spaniels - Goodnite Sweetheart Goodnite
EXTD=
EXTT0=
EXTT1=
EXTT2=
EXTT3=
EXTT4=
EXTT5=
EXTT6=
EXTT7=
EXTT8=
EXTT9=
EXTT10=
EXTT11=
EXTT12=
EXTT13=
EXTT14=
EXTT15=
EXTT16=
EXTT17=
EXTT18=
EXTT19=
EXTT20=
EXTT21=
EXTT22=
EXTT23=
EXTT24=
EXTT25=
EXTT26=
EXTT27=
PLAYORDER=
